<svg width="40" height="40" viewBox="0 0 40 40" fill="none" xmlns="http://www.w3.org/2000/svg">
<circle cx="20" cy="20" r="20" fill="#2E76C2"/>
<g clip-path="url(#clip0)">
<path fill-rule="evenodd" clip-rule="evenodd" d="M25.1406 21.9813C24.8302 21.8261 23.3083 21.0782 23.025 20.974C22.7417 20.8709 22.5354 20.8198 22.3281 21.1302C22.1219 21.4386 21.5292 22.1365 21.349 22.3428C21.1677 22.55 20.9875 22.575 20.6781 22.4209C20.3687 22.2646 19.3708 21.9386 18.1885 20.8844C17.2688 20.0636 16.6469 19.05 16.4667 18.7396C16.2865 18.4303 16.4469 18.2625 16.6021 18.1084C16.7417 17.9698 16.9115 17.7469 17.0667 17.5667C17.2219 17.3855 17.2729 17.2563 17.376 17.049C17.4802 16.8428 17.4281 16.6625 17.35 16.5073C17.2729 16.3521 16.6542 14.8282 16.3958 14.2084C16.1448 13.6053 15.8896 13.6875 15.7 13.6771C15.5188 13.6688 15.3125 13.6667 15.1062 13.6667C14.9 13.6667 14.5646 13.7438 14.2812 14.0542C13.9969 14.3636 13.1979 15.1125 13.1979 16.6365C13.1979 18.1594 14.3062 19.6313 14.4615 19.8386C14.6167 20.0448 16.6438 23.1719 19.749 24.5125C20.4885 24.8313 21.0646 25.0219 21.5135 25.1636C22.2552 25.4 22.9302 25.3667 23.4635 25.2865C24.0573 25.198 25.2948 24.5375 25.5531 23.8146C25.8104 23.0917 25.8104 22.4719 25.7333 22.3428C25.6562 22.2136 25.45 22.1365 25.1396 21.9813H25.1406ZM19.4927 29.6927H19.4885C17.6442 29.6931 15.8337 29.1973 14.2469 28.2573L13.8719 28.0344L9.97396 29.0573L11.0146 25.2573L10.7698 24.8678C9.73869 23.2264 9.19302 21.3269 9.19583 19.3886C9.19792 13.7115 13.8167 9.09275 19.4969 9.09275C22.2469 9.09275 24.8323 10.1657 26.776 12.1115C27.7348 13.0663 28.4947 14.2017 29.0117 15.452C29.5288 16.7024 29.7929 18.0428 29.7885 19.3959C29.7865 25.073 25.1677 29.6927 19.4927 29.6927ZM28.2552 10.6334C27.1075 9.47809 25.7419 8.56206 24.2376 7.93838C22.7333 7.31469 21.1201 6.99575 19.4917 7.00004C12.6646 7.00004 7.10625 12.5573 7.10417 19.3875C7.10312 21.5709 7.67292 23.7021 8.75729 25.5802L7 32L13.5667 30.2771C15.3832 31.2668 17.4188 31.7854 19.4875 31.7855H19.4927C26.3198 31.7855 31.8781 26.2282 31.8802 19.3969C31.8852 17.7691 31.5675 16.1564 30.9452 14.6522C30.323 13.1479 29.4087 11.782 28.2552 10.6334Z" fill="white"/>
</g>
<defs>
<clipPath id="clip0">
<rect width="25" height="25" fill="white" transform="translate(7 7)"/>
</clipPath>
</defs>
</svg>
