<svg width="58" height="57" viewBox="0 0 58 57" fill="none" xmlns="http://www.w3.org/2000/svg">
<path d="M53.8829 24.842L43.6568 23.2936L37.4248 13.2886C37.0977 12.7649 36.6386 12.3331 36.0919 12.0348C35.5452 11.7366 34.9294 11.5821 34.3042 11.5863L8.18627 11.7908C7.43268 11.797 6.69979 12.0338 6.08943 12.4682C5.47907 12.9027 5.02156 13.5131 4.78047 14.2148L1.8125 22.864V42.75H8.04365C8.52805 44.2975 9.5045 45.6515 10.8296 46.6134C12.1548 47.5753 13.7588 48.0944 15.4062 48.0944C17.0537 48.0944 18.6577 47.5753 19.9828 46.6134C21.308 45.6515 22.2844 44.2975 22.7689 42.75H34.3249C34.8093 44.2975 35.7858 45.6515 37.1109 46.6134C38.436 47.5753 40.0401 48.0944 41.6875 48.0944C43.3349 48.0944 44.939 47.5753 46.2641 46.6134C47.5892 45.6515 48.5657 44.2975 49.0501 42.75H56.1875V27.4827C56.1905 26.8438 55.9592 26.2252 55.5359 25.7403C55.1127 25.2553 54.5259 24.9364 53.8829 24.842ZM25.375 15.2186L34.3331 15.1484L39.3288 23.1693L25.375 23.1645V15.2186ZM8.21527 15.3531L21.75 15.2471V23.1633L5.5373 23.1576L8.21527 15.3531ZM15.4062 44.5313C14.5997 44.5313 13.8112 44.2962 13.1406 43.8558C12.4699 43.4154 11.9472 42.7895 11.6386 42.0572C11.3299 41.3248 11.2491 40.519 11.4065 39.7416C11.5638 38.9641 11.9522 38.25 12.5226 37.6895C13.0929 37.129 13.8196 36.7473 14.6106 36.5926C15.4017 36.438 16.2217 36.5174 16.9669 36.8207C17.7121 37.1241 18.349 37.6377 18.7971 38.2968C19.2452 38.9559 19.4844 39.7308 19.4844 40.5235C19.4832 41.586 19.0531 42.6047 18.2886 43.3561C17.5241 44.1075 16.4875 44.5301 15.4062 44.5313ZM41.6875 44.5313C40.8809 44.5313 40.0925 44.2962 39.4218 43.8558C38.7512 43.4154 38.2285 42.7895 37.9198 42.0572C37.6111 41.3248 37.5304 40.519 37.6877 39.7416C37.8451 38.9641 38.2335 38.25 38.8038 37.6895C39.3742 37.129 40.1008 36.7473 40.8919 36.5926C41.683 36.438 42.503 36.5174 43.2481 36.8207C43.9933 37.1241 44.6302 37.6377 45.0783 38.2968C45.5264 38.9559 45.7656 39.7308 45.7656 40.5235C45.7644 41.586 45.3344 42.6047 44.5698 43.3561C43.8053 44.1075 42.7687 44.5301 41.6875 44.5313ZM52.5625 39.1875H49.2681C48.9496 37.4394 48.0157 35.857 46.6299 34.7172C45.2441 33.5775 43.4946 32.953 41.6875 32.953C39.8804 32.953 38.1309 33.5775 36.7451 34.7172C35.3593 35.857 34.4254 37.4394 34.1069 39.1875H22.9868C22.6683 37.4394 21.7345 35.857 20.3487 34.7172C18.9628 33.5775 17.2133 32.953 15.4062 32.953C13.5992 32.953 11.8497 33.5775 10.4638 34.7172C9.07801 35.857 8.14416 37.4394 7.8257 39.1875H5.4375V26.7217L42.8799 26.7805L52.5625 28.2466V39.1875Z" fill="white"/>
</svg>
