<svg width="76" height="70" viewBox="0 0 76 70" fill="none" xmlns="http://www.w3.org/2000/svg">
<path d="M47.5 37.1875H61.4887C61.0474 39.8949 59.9978 42.4877 58.407 44.8004C56.8162 47.113 54.7192 49.0947 52.25 50.6188L47.9988 53.2438L50.6113 56.875L54.8625 54.25C58.441 52.0536 61.3754 49.0775 63.4055 45.5859C65.4356 42.0943 66.4986 38.1951 66.5 34.2344V19.6875C66.5 18.5272 65.9996 17.4144 65.1088 16.5939C64.218 15.7734 63.0098 15.3125 61.75 15.3125H47.5C46.2402 15.3125 45.032 15.7734 44.1412 16.5939C43.2504 17.4144 42.75 18.5272 42.75 19.6875V32.8125C42.75 33.9728 43.2504 35.0856 44.1412 35.9061C45.032 36.7266 46.2402 37.1875 47.5 37.1875Z" fill="#1C7ADE"/>
<path d="M14.25 37.1875H28.2387C27.7974 39.8949 26.7478 42.4877 25.157 44.8004C23.5662 47.113 21.4692 49.0947 19 50.6188L14.7487 53.2438L17.3375 56.875L21.6125 54.25C25.191 52.0536 28.1254 49.0775 30.1555 45.5859C32.1856 42.0943 33.2486 38.1951 33.25 34.2344V19.6875C33.25 18.5272 32.7496 17.4144 31.8588 16.5939C30.968 15.7734 29.7598 15.3125 28.5 15.3125H14.25C12.9902 15.3125 11.782 15.7734 10.8912 16.5939C10.0004 17.4144 9.5 18.5272 9.5 19.6875V32.8125C9.5 33.9728 10.0004 35.0856 10.8912 35.9061C11.782 36.7266 12.9902 37.1875 14.25 37.1875Z" fill="#1C7ADE"/>
</svg>
