<svg width="45" height="49" viewBox="0 0 45 49" fill="none" xmlns="http://www.w3.org/2000/svg">
<path fill-rule="evenodd" clip-rule="evenodd" d="M16.2262 0.153815C15.6781 0.341242 14.989 0.943287 14.7285 1.46232C14.5893 1.73992 14.4973 2.14663 14.4623 2.63917L14.4088 3.3918H13.6384C12.7188 3.3918 12.3145 3.53475 11.9343 3.9946L11.6535 4.33412H7.69456C3.31057 4.33412 3.02268 4.36437 2.04788 4.92702C1.02659 5.51654 0.264188 6.63968 0.0734651 7.83577C0.0132112 8.21335 -0.0118865 15.1615 0.00530104 26.7141L0.0324495 44.9951L0.253934 45.5232C0.739578 46.6817 1.58548 47.5283 2.70794 47.9791L3.25511 48.1989L22.9505 48.2236C42.5946 48.2482 42.6472 48.2478 43.1806 48.0552C43.7734 47.8412 44.4179 47.2475 44.6932 46.662C44.8439 46.3415 44.8587 44.9415 44.8825 28.7872C44.9009 16.3708 44.8777 11.1881 44.8027 11.0133C44.7011 10.7759 44.3533 10.5534 44.084 10.5534C44.0132 10.5534 43.8395 10.6413 43.698 10.7487L43.4406 10.944V28.3731C43.4406 47.5566 43.4835 46.2609 42.8362 46.6417C42.5239 46.8253 42.3545 46.8319 37.8891 46.8322L33.2653 46.8326L33.4771 46.5263C33.5936 46.3578 33.7758 46.0398 33.8819 45.8196L34.0748 45.4191L37.3173 45.417C41.0344 45.4147 41.1449 45.3953 41.652 44.656L41.927 44.255V32.1796V20.1042L41.652 19.7031C41.1468 18.9666 41.0233 18.9444 37.4104 18.9421L34.261 18.94V16.5371C34.261 15.2155 34.2808 14.1342 34.305 14.1342C34.3292 14.1342 34.6022 14.1978 34.9114 14.2756C38.3399 15.1372 41.6942 12.0963 40.9819 8.77224C40.746 7.67171 40.3887 7.02726 39.591 6.26379C38.7887 5.49599 38.0968 5.13801 36.9872 4.91656C35.9651 4.71265 34.9349 4.84909 33.9117 5.32393L33.1906 5.65864L32.6605 5.24195C31.8723 4.62247 31.2092 4.41092 29.8829 4.35579L28.7764 4.30981L28.8087 3.19278L28.841 2.07567L29.1603 1.76781L29.4795 1.46005L35.9962 1.43574C42.3964 1.41181 42.5187 1.41482 42.8362 1.60272C43.412 1.94346 43.4406 2.12147 43.4406 5.36398C43.4406 8.24699 43.4434 8.28695 43.6544 8.47663C43.9227 8.71787 44.3264 8.72286 44.6261 8.4886L44.8567 8.30834V5.11982C44.8567 1.53506 44.8655 1.58736 44.1226 0.809573C43.8518 0.526124 43.5372 0.319003 43.1837 0.191413C42.6683 0.0053059 42.453 -0.000536461 36.1371 2.89284e-05C32.0043 0.000311623 29.4909 0.0357427 29.2632 0.0968048C28.6443 0.262652 28.0047 0.755484 27.6774 1.31871C27.3902 1.81295 27.3746 1.89484 27.3422 3.08555L27.3082 4.33412H24.9462H22.5843L22.4162 4.05962C22.1455 3.61739 21.5385 3.3918 20.6194 3.3918H19.8323L19.7884 2.61439C19.738 1.7223 19.5839 1.36545 18.9947 0.775932C18.2985 0.0794661 17.1791 -0.172038 16.2262 0.153815ZM17.6686 1.5589C18.1149 1.78157 18.3422 2.21692 18.3426 2.84997L18.343 3.3918H17.1223H15.9016V2.91763C15.9016 2.29005 16.1102 1.8367 16.5061 1.60385C16.8934 1.3759 17.2726 1.3613 17.6686 1.5589ZM21.2239 5.98317V7.11395L17.1467 7.13855L13.0696 7.16314V5.98317V4.8032L17.1467 4.8278L21.2239 4.85239V5.98317ZM11.6047 6.45433V7.16107H7.92464C4.40208 7.16107 4.22659 7.16945 3.82669 7.35622C3.58147 7.47081 3.31673 7.69451 3.18557 7.89805L2.96214 8.24473L2.93352 25.9603C2.9178 35.7038 2.93177 43.8578 2.96458 44.0803C3.0344 44.5543 3.48177 45.0996 3.95843 45.2918C4.21136 45.3938 5.40354 45.4191 9.94788 45.4191C13.3932 45.4191 15.6904 45.3835 15.797 45.3285C15.8935 45.2786 16.0259 45.1133 16.0912 44.9612C16.1896 44.7322 16.183 44.6343 16.0532 44.3923C15.9671 44.2314 15.8867 44.0902 15.8746 44.0782C15.8626 44.0663 13.282 44.0345 10.1399 44.0075L4.42698 43.9585V26.2901V8.62166L8.63919 8.59706L12.8515 8.57256L12.8903 9.50432C12.925 10.3402 12.9591 10.4831 13.2216 10.8927C13.4019 11.1741 13.6977 11.4589 13.9922 11.6346L14.4702 11.9198H17.1147C19.6599 11.9198 19.7742 11.9119 20.1646 11.7105C20.6626 11.4535 21.1105 10.9443 21.2589 10.4665C21.3201 10.269 21.3703 9.76214 21.3703 9.33998V8.57256L25.594 8.59706L29.8176 8.62166V26.2901V43.9585L24.2078 43.9828C18.6058 44.0071 18.5977 44.0075 18.3729 44.2113C18.084 44.4731 18.0783 44.9117 18.36 45.2011L18.5724 45.4191H24.2963H30.0203L30.4518 45.2071C30.7584 45.0564 30.9481 44.8748 31.1072 44.5798L31.3313 44.1644V26.2953V8.42603L31.1115 8.00595C30.9667 7.72919 30.7586 7.51396 30.5012 7.37507C30.1161 7.16719 30.0581 7.16418 26.424 7.16257L22.7375 7.16107V6.45037V5.73977L26.7658 5.76719C30.703 5.79405 30.8032 5.79942 31.1961 6.00221C31.8139 6.32109 32.1437 6.6279 32.4588 7.1768L32.7473 7.67934V26.2901V44.9008L32.5322 45.2887C32.2018 45.8848 31.8838 46.203 31.315 46.5071L30.7942 46.7855L17.3004 46.8103C3.88889 46.835 3.80344 46.834 3.26975 46.6413C2.62337 46.408 1.99573 45.8472 1.70745 45.2453L1.49729 44.8066L1.47132 26.5728C1.45335 13.9258 1.47737 8.19008 1.54964 7.8531C1.67942 7.24785 2.143 6.55949 2.6305 6.24825C3.38909 5.7638 3.46663 5.75617 7.67405 5.75174L11.6047 5.74759V6.45433ZM37.5291 6.53499C38.273 6.86358 38.892 7.45139 39.2658 8.18405C39.5499 8.74086 39.5829 8.8905 39.5802 9.60911C39.5777 10.2874 39.5341 10.5031 39.2995 10.9984C38.9723 11.6895 38.208 12.4349 37.512 12.7422C36.837 13.0401 35.3858 13.0439 34.7248 12.7495L34.261 12.5428V10.336C34.261 8.33727 34.1989 7.50727 34.0154 7.04884C33.9663 6.92634 34.0661 6.83361 34.4477 6.64703C34.7205 6.5136 35.1087 6.36424 35.3104 6.31515C35.902 6.17107 36.9376 6.27369 37.5291 6.53499ZM19.9055 9.31793C19.9055 9.90924 19.8673 10.1069 19.719 10.2838C19.5342 10.5041 19.5113 10.5066 17.3106 10.5349C15.8253 10.5542 15.0011 10.5286 14.8242 10.4579C14.4623 10.3133 14.3391 10.0013 14.3391 9.22973V8.57454H17.1223H19.9055V9.31793ZM13.9833 14.509C13.7361 14.6069 13.4602 14.9602 13.4602 15.179C13.4602 15.2641 13.5513 15.4455 13.6626 15.5821L13.865 15.8304H20.4346C26.5675 15.8304 27.0144 15.8194 27.1581 15.6655C27.4478 15.3554 27.4611 15.0333 27.1965 14.7364L26.9537 14.464L20.5732 14.4451C17.0639 14.4346 14.0985 14.4634 13.9833 14.509ZM9.58196 15.4723L8.58587 16.4336L7.9553 15.8492C7.26194 15.2068 7.01507 15.1365 6.5886 15.4603C6.4053 15.5994 6.33128 15.7433 6.33128 15.9607C6.33128 16.2234 6.47327 16.4006 7.35393 17.2368C8.27981 18.116 8.40237 18.2019 8.64788 18.1447C8.81604 18.1056 9.43557 17.5851 10.2782 16.775C11.4353 15.6625 11.6372 15.4254 11.6372 15.1794C11.6372 14.7731 11.36 14.5111 10.9298 14.5111C10.6141 14.5111 10.4763 14.6094 9.58196 15.4723ZM13.6999 17.5694C13.5681 17.6966 13.4602 17.9105 13.4602 18.0448C13.4602 18.1791 13.5681 18.393 13.6999 18.5202L13.9396 18.7516H20.3814C23.9243 18.7516 26.8943 18.7252 26.9812 18.693C27.0682 18.6608 27.2071 18.5081 27.2899 18.3535C27.4137 18.1224 27.4194 18.0235 27.3217 17.796C27.2564 17.6439 27.1239 17.4786 27.0275 17.4287C26.9201 17.3733 24.3421 17.3381 20.3957 17.3381H13.9396L13.6999 17.5694ZM13.6626 20.5076C13.399 20.8308 13.4072 21.0373 13.6958 21.3612L13.9316 21.6256H20.4426H26.9536L27.1965 21.3532C27.4611 21.0564 27.4478 20.7343 27.1581 20.4242C27.0144 20.2702 26.5675 20.2593 20.4346 20.2593H13.865L13.6626 20.5076ZM40.4517 20.5026C40.5291 20.6973 40.5291 43.6618 40.4517 43.8566C40.3993 43.9881 40.0321 44.0056 37.3267 44.0056H34.261V41.5604V39.1153L36.5647 39.0868C38.8515 39.0587 38.8697 39.0569 39.0549 38.836C39.2966 38.5477 39.2913 38.2499 39.039 37.9404L38.8366 37.6921H36.5487H34.261V36.7969V35.9017H36.5114H38.762L39.0017 35.6704C39.2946 35.3878 39.3075 35.0659 39.039 34.7365L38.8366 34.4882H36.5487H34.261V33.593V32.6978H36.5114H38.762L39.0017 32.4665C39.1335 32.3393 39.2414 32.1254 39.2414 31.9911C39.2414 31.8568 39.1335 31.6429 39.0017 31.5157L38.762 31.2844H36.5114H34.261V30.3892V29.494H36.5114H38.762L39.0017 29.2626C39.1335 29.1354 39.2414 28.9215 39.2414 28.7872C39.2414 28.6529 39.1335 28.439 39.0017 28.3118L38.762 28.0805H36.5114H34.261V27.1853V26.2901H36.5114H38.762L39.0017 26.0587C39.1335 25.9315 39.2414 25.7176 39.2414 25.5833C39.2414 25.4491 39.1335 25.2352 39.0017 25.1079L38.762 24.8766H36.5114H34.261V22.6151V20.3535H37.3267C40.0321 20.3535 40.3993 20.371 40.4517 20.5026ZM9.63557 24.9432L8.57454 25.9521L7.96301 25.3673C7.46741 24.8933 7.29173 24.7824 7.03665 24.7824C6.62923 24.7824 6.33128 25.0687 6.33128 25.4604C6.33128 25.7157 6.47678 25.9019 7.2888 26.6854C8.6054 27.9558 8.52991 27.9632 10.1671 26.4079C10.8628 25.7471 11.4882 25.081 11.5571 24.9278C11.7683 24.4574 11.4437 23.9438 10.931 23.9373C10.7621 23.9351 10.3999 24.2164 9.63557 24.9432ZM13.6999 24.1656C13.5681 24.2928 13.4602 24.5068 13.4602 24.641C13.4602 24.7753 13.5681 24.9892 13.6999 25.1164L13.9396 25.3478H20.4164C27.4547 25.3478 27.2282 25.3646 27.3671 24.8309C27.4385 24.5564 27.2196 24.0811 26.9812 23.9928C26.8943 23.9607 23.9243 23.9343 20.3814 23.9343H13.9396L13.6999 24.1656ZM13.6626 27.1038C13.399 27.427 13.4072 27.6335 13.6958 27.9574L13.9316 28.2218H20.4426H26.9536L27.1965 27.9494C27.4611 27.6526 27.4478 27.3305 27.1581 27.0204C27.0144 26.8664 26.5675 26.8555 20.4346 26.8555H13.865L13.6626 27.1038ZM13.7643 29.8473C13.6511 29.938 13.5314 30.1473 13.4984 30.3123C13.4499 30.5543 13.4868 30.659 13.689 30.8541L13.9396 31.0959H20.3957C24.7598 31.0959 26.9147 31.0635 27.0455 30.9959C27.5139 30.754 27.4698 30.0067 26.9743 29.7889C26.8023 29.7132 24.8857 29.6824 20.3512 29.6824C14.4175 29.6824 13.9557 29.694 13.7643 29.8473ZM9.59046 34.4101L8.58118 35.3685L8.00579 34.839C7.32219 34.2097 7.01028 34.1021 6.64016 34.3675C6.45579 34.4998 6.37122 34.6557 6.34944 34.9034C6.32092 35.2285 6.37522 35.3087 7.13069 36.0571C8.00745 36.9256 8.38274 37.1712 8.70999 37.0904C8.82503 37.062 9.53079 36.4467 10.2782 35.723C11.4315 34.6065 11.6372 34.3636 11.6372 34.1191C11.6372 33.7181 11.3592 33.4517 10.9406 33.4517C10.6399 33.4517 10.4814 33.5642 9.59046 34.4101ZM13.6626 33.7C13.5513 33.8365 13.4602 34.0042 13.4602 34.0725C13.4602 34.3326 13.6908 34.6679 13.9376 34.7666C14.1161 34.8379 16.1382 34.8614 20.574 34.8436L26.9537 34.818L27.1965 34.5456C27.4611 34.2488 27.4478 33.9267 27.1581 33.6166C27.0144 33.4626 26.5675 33.4517 20.4346 33.4517H13.865L13.6626 33.7ZM13.8738 36.3764C13.6598 36.4593 13.4602 36.8037 13.4602 37.0901C13.4602 37.1668 13.5681 37.3336 13.6999 37.4608L13.9396 37.6921H20.3957C24.7598 37.6921 26.9147 37.6597 27.0455 37.5921C27.5139 37.3502 27.4698 36.6029 26.9743 36.3851C26.6743 36.2532 14.213 36.2448 13.8738 36.3764ZM13.6626 39.4481C13.5513 39.5847 13.4602 39.7523 13.4602 39.8206C13.4602 40.0698 13.6828 40.4065 13.915 40.5087C14.0816 40.5819 16.0573 40.6133 20.5035 40.6133H26.8541L27.1495 40.3282C27.3863 40.0997 27.4324 39.9922 27.382 39.7864C27.3474 39.6452 27.2281 39.4554 27.1171 39.3647C26.9291 39.2112 26.4623 39.1998 20.3901 39.1998H13.865L13.6626 39.4481Z" fill="#156ECC"/>
</svg>
