<svg width="50" height="48" viewBox="0 0 50 48" fill="none" xmlns="http://www.w3.org/2000/svg">
<path fill-rule="evenodd" clip-rule="evenodd" d="M4.30183 0.122028C3.47625 0.406513 2.16531 1.4637 1.46658 2.40856C0.934937 3.12755 0.40769 4.18973 0.180054 5.00049C-0.0805909 5.92858 -0.054419 7.73915 0.233667 8.71727C0.814331 10.6884 2.32224 12.5103 4.11218 13.4034L4.7406 13.7169L4.74089 23.9532L4.74128 34.1894L4.43943 34.3101C3.48884 34.6901 2.174 35.7522 1.46951 36.7094C0.423999 38.13 0.0144287 39.3601 0.0106201 41.0912C0.00769038 42.4289 0.150952 43.0834 0.686108 44.1767C1.27058 45.3711 1.98347 46.2381 3.00388 46.9959C4.37146 48.0113 5.3656 48.1277 6.00222 47.3468C6.19871 47.1057 6.20613 46.9937 6.20613 44.277C6.20613 40.9674 6.23894 40.7679 6.88503 40.1444C7.81189 39.2501 9.05984 39.3789 9.79109 40.4442L10.0635 40.8412L10.1124 43.9153C10.1664 47.316 10.1637 47.3021 10.8257 47.6916C11.2646 47.9499 11.7453 47.9212 12.4161 47.5968C15.0253 46.3351 16.7551 43.1252 16.3662 40.2667C16.0231 37.7444 14.4798 35.5867 12.1878 34.4249L11.6754 34.1652L11.6751 29.6734C11.675 27.2028 11.6475 25.1128 11.6142 25.029C11.5808 24.945 11.4225 24.811 11.2624 24.7311C11.0228 24.6116 10.9204 24.6061 10.6845 24.7004C10.5269 24.7634 10.3556 24.8912 10.304 24.9843C10.2473 25.0865 10.21 27.094 10.21 30.0453C10.21 35.6727 10.077 35.0186 11.3436 35.6196C12.6546 36.2416 13.6446 37.1855 14.2658 38.4056C14.734 39.3251 14.9051 40.0441 14.9051 41.0912C14.9051 42.6912 14.3635 44.0274 13.2558 45.1604C12.6184 45.8123 11.8913 46.3682 11.6759 46.3682C11.596 46.3682 11.5718 45.6223 11.5884 43.659C11.6081 41.3188 11.5886 40.8857 11.4453 40.4787C10.9795 39.1557 9.58142 38.1502 8.20808 38.1503C6.93503 38.1506 5.6405 38.9844 5.07341 40.1694L4.79011 40.7614L4.75916 43.5648C4.74216 45.1067 4.70378 46.3682 4.6739 46.3682C4.64402 46.3682 4.3449 46.1791 4.00916 45.9479C2.97195 45.2337 2.21121 44.2159 1.75251 42.9287C1.52 42.2763 1.48386 42.0291 1.48455 41.0912C1.48513 40.1504 1.52166 39.9041 1.7616 39.2226C2.32664 37.6178 3.54109 36.3099 5.18611 35.5344C5.63826 35.3212 6.05281 35.0666 6.1072 34.9684C6.24392 34.7219 6.24392 13.1602 6.1072 12.9137C6.05281 12.8155 5.63826 12.5609 5.18611 12.3477C3.54109 11.5722 2.32664 10.2643 1.7616 8.65951C1.52166 7.97803 1.48513 7.73171 1.48455 6.7909C1.48386 5.85301 1.52 5.60584 1.75251 4.95338C2.20388 3.68691 2.90701 2.73243 3.94968 1.97076C4.29363 1.71954 4.60955 1.51392 4.65164 1.51392C4.69373 1.51392 4.74216 2.77653 4.75916 4.31967L4.79011 7.12542L5.10984 7.75178C6.30994 10.1027 9.35662 10.4038 10.9351 8.32744C11.5725 7.48897 11.6072 7.27082 11.5863 4.22921C11.5728 2.27852 11.5984 1.51392 11.6769 1.51392C11.8914 1.51392 12.6196 2.07102 13.2558 2.72169C13.9602 3.44228 14.4981 4.37913 14.7534 5.33031C14.9493 6.06032 14.9493 7.52147 14.7534 8.25149C14.2877 9.98667 13.0537 11.436 11.3341 12.2676C10.0788 12.8747 10.21 12.2466 10.21 17.6464V22.3477L10.4498 22.5789C10.7552 22.8738 11.1297 22.8738 11.4351 22.5789L11.6749 22.3477L11.6751 18.0323L11.6754 13.7169L12.1878 13.4572C14.4798 12.2954 16.0231 10.1377 16.3662 7.61542C16.7553 4.75474 15.0245 1.54248 12.4161 0.284577C11.7452 -0.0390141 11.2641 -0.0674721 10.8257 0.190534C10.1638 0.579994 10.1664 0.566236 10.1124 3.96687L10.0635 7.04089L9.80154 7.42253C9.52205 7.8298 9.04558 8.1614 8.53806 8.3019C7.72332 8.5273 6.55759 7.77147 6.32087 6.8643C6.24626 6.57869 6.20613 5.48155 6.20613 3.73072C6.20613 0.735005 6.17146 0.532312 5.60164 0.19713C5.25095 -0.00923695 4.76433 -0.037318 4.30183 0.122028ZM21.4474 0.171311C21.2633 0.261868 21.0216 0.455796 20.9103 0.602138C20.7149 0.859202 20.7081 0.979347 20.7081 4.13583C20.7081 7.97935 20.7256 8.07377 21.6 8.94484L22.1241 9.46698V17.1281V24.7891H21.3878C20.5135 24.7891 20.0304 24.9858 19.6151 25.5111L19.3409 25.8578L19.2665 29.8702C19.2256 32.0769 19.2042 36.1511 19.2189 38.9239L19.2457 43.9653L19.7682 45.473C20.3961 47.2844 20.4816 47.4547 20.8838 47.6912C21.1795 47.8653 21.399 47.8752 24.9561 47.8752C28.5133 47.8752 28.7328 47.8653 29.0285 47.6912C29.4325 47.4536 29.5204 47.2781 30.1393 45.473L30.6562 43.9653L30.6891 40.5729C30.7073 38.7072 30.6882 34.633 30.6468 31.5193L30.5714 25.8578L30.2971 25.5111C29.8818 24.9858 29.3988 24.7891 28.5245 24.7891H27.7882V17.1454V9.50166L28.3159 8.95163C29.1901 8.0405 29.2042 7.96417 29.2042 4.13583C29.2042 -0.345738 29.5666 0.00649974 24.9561 0.00649974C22.1273 0.00649974 21.7459 0.0244038 21.4474 0.171311ZM39.4444 0.138895C37.5995 0.478977 36.0705 1.23481 34.7867 2.44145C32.5684 4.52632 31.6618 7.29739 32.269 10.1363C32.7934 12.5877 34.532 14.7848 36.8458 15.9201L37.2608 16.1237V26.0491V35.9745L36.7149 36.3892C35.6387 37.2063 34.7342 38.5506 34.3751 39.8662C34.1531 40.6797 34.1534 42.1648 34.3758 42.9743C35.0309 45.3594 37.1574 47.2653 39.6988 47.7451C42.8922 48.348 46.1337 46.5179 47.4552 43.3661C47.7441 42.6768 47.757 42.5877 47.758 41.2797C47.759 39.803 47.6775 39.4319 47.1135 38.3435C46.7841 37.7076 45.9486 36.8113 45.2731 36.3691L44.7854 36.0498L44.7829 30.6132L44.7803 25.1766L44.5516 24.92C44.2622 24.5953 43.7887 24.5734 43.4809 24.8703L43.2667 25.0769L43.2368 30.6576C43.2168 34.3897 43.2411 36.3475 43.3101 36.5681C43.3926 36.8315 43.5534 36.9833 44.109 37.322C45.6511 38.2621 46.3428 39.4982 46.3428 41.3144C46.3428 42.6317 45.8101 43.7721 44.6837 44.866C43.4708 46.0437 42.1891 46.5389 40.6273 46.4333C38.3507 46.2794 36.414 44.7614 35.8402 42.6808C35.6777 42.0916 35.6591 40.8514 35.8037 40.2458C36.0732 39.1173 37.0224 37.8549 38.136 37.1439L38.6768 36.7985L38.7036 26.2001C38.7183 20.3709 38.7068 15.507 38.6779 15.3916C38.64 15.2404 38.4003 15.078 37.8209 14.8111C33.0883 12.6316 32.0941 6.79551 35.8751 3.38734C39.521 0.100732 45.4637 1.08008 47.6622 5.32974C48.4128 6.78062 48.6271 8.08837 48.3586 9.57733C47.9274 11.9676 46.3706 13.8893 44.0519 14.8931C43.4956 15.1339 43.4128 15.205 43.3156 15.5244C43.2413 15.7688 43.2159 16.9374 43.2364 19.1672L43.2667 22.4502L43.4972 22.6302C43.7917 22.8601 44.2065 22.8601 44.501 22.6302L44.7315 22.4502L44.7608 19.2845L44.7901 16.1189L45.2003 15.9176C45.9232 15.5629 46.751 14.9757 47.3701 14.3783C50.7093 11.1562 50.8006 6.03751 47.5772 2.76325C46.3821 1.54917 44.8899 0.690716 43.2667 0.283164C42.2596 0.0303404 40.4117 -0.0393911 39.4444 0.138895ZM27.6905 2.22066V3.02163H24.9561H22.2218V2.22066V1.41969H24.9561H27.6905V2.22066ZM39.2628 4.06242C38.4034 4.53066 37.3864 5.08662 37.0027 5.29798C36.607 5.51594 36.2584 5.7813 36.197 5.91115C36.0389 6.24605 36.0524 10.7213 36.2125 11.0236C36.3676 11.3167 40.6097 13.6581 40.9979 13.665C41.1699 13.6681 42.0715 13.233 43.4776 12.4684C45.3956 11.4253 45.7051 11.2254 45.8243 10.9527C45.9329 10.7045 45.9555 10.1466 45.9325 8.29267L45.9034 5.94677L45.6593 5.71826C45.3292 5.40927 41.2573 3.2099 41.0166 3.21066C40.9114 3.21094 40.1221 3.59428 39.2628 4.06242ZM27.6901 5.91925C27.6897 7.62532 27.6346 7.78457 26.8693 8.29276C26.6243 8.45531 26.3793 8.66884 26.3248 8.76712C26.2599 8.88397 26.2257 11.6886 26.2257 16.8675V24.7891H24.9561H23.6866V16.9269C23.6866 12.2898 23.6492 8.96991 23.5955 8.83346C23.5454 8.70625 23.3158 8.48 23.0853 8.33064C22.2859 7.81265 22.2218 7.63408 22.2218 5.92886V4.4351H24.9561H27.6905L27.6901 5.91925ZM43.3887 6.01292L44.3897 6.55353V8.45098V10.3484L42.7259 11.2553C41.8107 11.754 41.0306 12.1596 40.9925 12.1564C40.9542 12.1533 40.1759 11.7389 39.2628 11.2355L37.6026 10.3202L37.5761 8.46728L37.5497 6.61421L39.2825 5.67048L41.0152 4.72666L41.7014 5.09953C42.079 5.30458 42.8383 5.71562 43.3887 6.01292ZM29.1336 27.5925L29.1607 28.9353H24.9588H20.7569V27.6318C20.7569 26.9148 20.7867 26.2996 20.823 26.2644C20.8594 26.2293 22.7381 26.2117 24.9978 26.2251L29.1065 26.2497L29.1336 27.5925ZM29.1553 36.5681V42.7874H24.9561H20.7569V36.5681V30.3488H24.9561H29.1553V36.5681ZM22.7819 32.4455C22.4499 32.6888 22.4171 33.0599 22.4171 36.5772C22.4171 40.4109 22.4477 40.6472 22.9615 40.7716C23.3217 40.8588 23.7056 40.7121 23.8557 40.43C23.9517 40.2495 23.9745 39.3369 23.9554 36.4419L23.9307 32.6878L23.7002 32.5078C23.4362 32.3016 23.0171 32.2731 22.7819 32.4455ZM26.2121 32.5078L25.9815 32.6878L25.9568 36.4419C25.9378 39.3369 25.9605 40.2495 26.0565 40.43C26.2066 40.7121 26.5906 40.8588 26.9508 40.7716C27.4643 40.6472 27.4952 40.4102 27.4952 36.5852C27.4952 33.0039 27.4573 32.6041 27.1008 32.4199C26.8214 32.2757 26.4639 32.311 26.2121 32.5078ZM40.337 38.6291C39.4344 38.8568 38.7444 39.3881 38.342 40.1653C38.0908 40.6503 38.0421 40.8543 38.0421 41.421C38.0421 44.4208 42.2532 45.3262 43.7398 42.646C43.909 42.3411 43.9489 42.1071 43.9492 41.421C43.9496 40.5087 43.8608 40.256 43.2967 39.5633C42.7322 38.8702 41.2437 38.4003 40.337 38.6291ZM41.8374 40.2179C42.7623 40.8788 42.7571 41.9668 41.826 42.6324C41.4466 42.9036 40.5988 42.9062 40.2223 42.6374C39.7032 42.2666 39.485 41.852 39.5292 41.3202C39.5768 40.7474 39.8081 40.4111 40.337 40.1459C40.8075 39.9099 41.4496 39.9407 41.8374 40.2179ZM28.96 44.2673C28.96 44.3039 28.7967 44.8127 28.597 45.3981L28.234 46.4624H24.9492H21.6644L21.3083 45.3905C21.1125 44.8009 20.9522 44.2921 20.9522 44.2598C20.9522 44.2273 22.754 44.2009 24.9561 44.2009C27.1583 44.2009 28.96 44.2307 28.96 44.2673Z" fill="#156ECC"/>
</svg>
