<svg width="219" height="78" viewBox="0 0 219 78" fill="none" xmlns="http://www.w3.org/2000/svg">
<path d="M14.1575 64.4258V60.2225H0.348633V64.4258H5.00943V77.7527H9.49669V64.4258H14.1575Z" fill="#1A1A1A"/>
<path d="M20.3792 64.4011H28.1141V60.2473H15.8919V77.7527H28.1141V73.5742H20.3792V70.9533H27.4944V67.1209H20.3792V64.4011Z" fill="#1A1A1A"/>
<path d="M34.9291 64.4505H39.8626V77.7527H44.3251V60.2473H30.4666V77.7527H34.9291V64.4505Z" fill="#1A1A1A"/>
<path d="M54.1896 64.4505H57.4372V77.7527H61.8997V60.2473H50.1733L49.7519 66.1071C49.4792 69.989 49.7519 73.8214 46.1323 73.6236V77.7527C51.8592 78.3214 53.6689 73.8214 53.8921 69.7665L54.1896 64.4505Z" fill="#1A1A1A"/>
<path d="M64.2545 71.9918C64.2545 75.9973 67.8989 78 71.5432 78C75.1876 78 78.8071 75.9973 78.8071 71.9918V66.0082C78.8071 62.0027 75.1628 60 71.5184 60C67.8741 60 64.2545 61.978 64.2545 66.0082V71.9918ZM68.6922 66.0082C68.6922 64.7225 70.0805 64.0302 71.4688 64.0302C72.9068 64.0302 74.3695 64.6484 74.3695 66.0082V71.9918C74.3695 73.2527 72.9563 73.8956 71.5432 73.8956C70.1301 73.8956 68.6922 73.2775 68.6922 71.9918V66.0082Z" fill="#1A1A1A"/>
<path d="M93.7856 64.4258V60.2225H79.9768V64.4258H84.6376V77.7527H89.1248V64.4258H93.7856Z" fill="#1A1A1A"/>
<path d="M100.007 64.4011H107.742V60.2473H95.5201V77.7527H107.742V73.5742H100.007V70.9533H107.123V67.1209H100.007V64.4011Z" fill="#1A1A1A"/>
<path d="M116.813 66.2308L113.813 60.2473H108.632L113.566 69.0247L108.632 77.7527H113.813L116.813 71.794L119.887 77.7527H125.044L120.135 69.0247L125.044 60.2473H119.887L116.813 66.2308Z" fill="#1A1A1A"/>
<path d="M130.827 71.1511H135.884V77.7527H140.347V60.2473H135.884V66.8736H130.827V60.2473H126.364V77.7527H130.827V71.1511Z" fill="#1A1A1A"/>
<path d="M152.861 77.7527H157.323V60.2473H153.258L148.77 67.6896L147.308 70.8297L147.208 70.8049C147.208 70.8049 147.555 68.1841 147.58 68.1841V60.2473H143.118V77.7527H147.308L151.522 70.8544L153.183 67.4423L153.307 67.467C153.307 67.467 152.886 70.7555 152.861 70.7555V77.7527Z" fill="#1A1A1A"/>
<path d="M164.552 66.7253V60.2473H160.089V77.7527H164.552V71.6951L164.701 71.4973L169.237 77.7527H174.815L167.899 68.8516L174.84 60.2473H169.312L164.552 66.7253Z" fill="#1A1A1A"/>
<path d="M184.575 60.2473H180.534L174.41 77.7527H179.17L180.261 74.2418H184.946L186.087 77.7527H190.847L184.575 60.2473ZM181.253 70.3104L182.542 65.1923H182.666L183.88 70.3104H181.253Z" fill="#1A1A1A"/>
<path d="M195.153 65.7857C197.087 62.25 200.979 64.772 198.624 67.4176L191.484 75.4286L192.599 77.728H203.904V73.5247H199.938L197.88 73.9451L201.747 70.2857C203.334 68.8022 203.929 67.022 203.929 65.3901C203.929 62.6456 201.921 60 198.053 60C195.649 60 193.269 61.2363 191.831 63.9808L195.153 65.7857Z" fill="#2184EE"/>
<path d="M218.349 70.3599H216.712V60.2473H213.068L204.887 71.3489L206.3 73.9451H212.473V77.7527H216.712V73.9451H218.349V70.3599ZM209.696 70.4093L212.845 65.9341L212.795 70.4093H209.696Z" fill="#2184EE"/>
<path d="M53.0057 49.9666H24.8487L39.531 25.6033L53.0057 49.9666Z" fill="url(#paint0_linear)"/>
<path d="M165.692 49.9666H193.849L179.166 25.6033L165.692 49.9666Z" fill="url(#paint1_linear)"/>
<path d="M67.8138 26.5135L39.4446 18.0363L58.3706 49.9912H61.5583L79.9271 32.0022C80.1926 31.7477 80.3315 31.6392 80.5563 31.3907C80.9862 30.9147 80.8562 31.1002 81.1514 30.5769L77.6409 29.7351L77.5515 23.1343L68.6778 21.3954L68.6865 31.3426L67.8138 26.5135Z" fill="url(#paint2_linear)"/>
<path d="M150.883 26.5135L179.252 18.0363L160.326 49.9912H157.139L138.77 32.0022C138.504 31.7477 138.365 31.6392 138.141 31.3907C137.711 30.9147 137.841 31.1002 137.546 30.5769L141.056 29.7351L141.146 23.1343L150.019 21.3954L150.011 31.3426L150.883 26.5135Z" fill="url(#paint3_linear)"/>
<path fill-rule="evenodd" clip-rule="evenodd" d="M58.3693 49.9911L52.9718 49.9842C52.5987 48.8443 40.0513 28.3009 39.3293 27.3787C38.2214 28.5879 33.5793 35.9862 32.0968 38.1393L24.8562 49.958L39.4428 18.0359C40.2796 19.0346 48.1042 32.4657 48.9467 33.8942L58.3693 49.9911Z" fill="url(#paint4_linear)"/>
<path fill-rule="evenodd" clip-rule="evenodd" d="M160.328 49.9911L165.725 49.9842C166.099 48.8443 178.646 28.3009 179.368 27.3787C180.476 28.5879 185.118 35.9862 186.6 38.1393L193.841 49.958L179.255 18.0359C178.418 19.0346 170.593 32.4657 169.751 33.8942L160.328 49.9911Z" fill="url(#paint5_linear)"/>
<path d="M147.22 49.9912L70.2868 49.9912L108.984 9.74649L147.22 49.9912Z" fill="url(#paint6_linear)"/>
<path fill-rule="evenodd" clip-rule="evenodd" d="M108.06 39.8119L99.1252 39.9422C99.0608 36.5745 99.4514 33.4142 101.169 31.3694C102.381 29.9262 105.171 27.2521 108.057 27.5396L108.06 39.8119V39.8119Z" fill="#1973D2"/>
<path fill-rule="evenodd" clip-rule="evenodd" d="M119.51 39.9077L110.679 39.9349L110.587 27.424C113.816 27.9883 115.989 29.4461 117.515 31.3382C119.206 33.4341 119.663 36.595 119.51 39.9077L119.51 39.9077Z" fill="#1973D2"/>
<path fill-rule="evenodd" clip-rule="evenodd" d="M108.104 49.9819L99.1055 49.9047L99.0688 42.4205L108.067 42.4049L108.104 49.9819Z" fill="#1973D2"/>
<path fill-rule="evenodd" clip-rule="evenodd" d="M119.547 49.9611L110.578 49.9912L110.562 42.4145L119.541 42.4527L119.547 49.9611Z" fill="#1973D2"/>
<path fill-rule="evenodd" clip-rule="evenodd" d="M109.326 10.8539L70.5715 50L60.9849 49.9926L109.326 0L157.631 49.9875L147.158 49.9845L109.326 10.8539Z" fill="url(#paint7_linear)"/>
<defs>
<linearGradient id="paint0_linear" x1="38.9272" y1="26.8036" x2="38.9272" y2="49.9666" gradientUnits="userSpaceOnUse">
<stop stop-color="#C2C2C2"/>
<stop offset="1" stop-color="white" stop-opacity="0"/>
</linearGradient>
<linearGradient id="paint1_linear" x1="179.77" y1="26.8036" x2="179.77" y2="49.9666" gradientUnits="userSpaceOnUse">
<stop stop-color="#C2C2C2"/>
<stop offset="1" stop-color="white" stop-opacity="0"/>
</linearGradient>
<linearGradient id="paint2_linear" x1="41.2464" y1="27.5245" x2="81.9142" y2="27.5245" gradientUnits="userSpaceOnUse">
<stop stop-color="#268FFF"/>
<stop offset="1" stop-color="#044992"/>
</linearGradient>
<linearGradient id="paint3_linear" x1="177.451" y1="27.5245" x2="136.783" y2="27.5245" gradientUnits="userSpaceOnUse">
<stop stop-color="#268FFF"/>
<stop offset="1" stop-color="#044992"/>
</linearGradient>
<linearGradient id="paint4_linear" x1="41.5933" y1="18.0359" x2="41.5933" y2="49.9912" gradientUnits="userSpaceOnUse">
<stop stop-color="#151515"/>
<stop offset="1" stop-color="#4F4F4F"/>
</linearGradient>
<linearGradient id="paint5_linear" x1="177.104" y1="18.0359" x2="177.104" y2="49.9912" gradientUnits="userSpaceOnUse">
<stop stop-color="#151515"/>
<stop offset="1" stop-color="#4F4F4F"/>
</linearGradient>
<linearGradient id="paint6_linear" x1="108.753" y1="9.74649" x2="108.753" y2="49.9912" gradientUnits="userSpaceOnUse">
<stop stop-color="#C2C2C2"/>
<stop offset="1" stop-color="white" stop-opacity="0"/>
</linearGradient>
<linearGradient id="paint7_linear" x1="109.308" y1="0" x2="109.308" y2="50" gradientUnits="userSpaceOnUse">
<stop stop-color="#151515"/>
<stop offset="1" stop-color="#4F4F4F"/>
</linearGradient>
</defs>
</svg>
