<svg width="53" height="51" viewBox="0 0 53 51" fill="none" xmlns="http://www.w3.org/2000/svg">
<path fill-rule="evenodd" clip-rule="evenodd" d="M21.3796 0.106389C20.6614 0.319933 19.9081 1.20047 19.7279 2.0372C19.6556 2.37305 19.6133 2.41 19.2291 2.47331C18.9983 2.51133 18.6734 2.61031 18.5071 2.69332C18.0241 2.9343 17.478 3.62737 17.2923 4.23507C17.1236 4.78731 17.1229 4.78799 16.6008 4.90069C15.7136 5.09229 14.9066 5.95166 14.685 6.94078C14.6263 7.20254 14.5654 7.25967 14.3424 7.26144C13.6466 7.26693 12.7769 7.93794 12.3842 8.77193C12.1397 9.29143 12.1405 10.1288 12.386 10.6506C12.4903 10.8719 12.7868 11.2234 13.0452 11.4319L13.515 11.8107L12.422 12.8746C11.4877 13.7841 11.1962 14.003 10.4149 14.3825C9.12955 15.0067 7.97793 15.7641 7.06854 16.5837L6.28844 17.2866L3.67534 14.772C0.839508 12.043 0.771969 11.9981 0.254102 12.4979C-0.264578 12.9983 -0.220094 13.0603 2.64539 15.8325C4.09774 17.2375 5.28602 18.4254 5.28602 18.4722C5.28602 18.519 5.1093 18.8272 4.89327 19.1572C4.20214 20.2132 3.85429 20.9566 3.92477 21.2273C4.04431 21.6871 4.71239 21.9229 5.08777 21.6378C5.1742 21.5721 5.4217 21.2097 5.63763 20.8324C7.06377 18.3415 8.83014 16.7055 11.2898 15.5973C12.0553 15.2524 12.275 15.0838 13.4604 13.9315C14.1857 13.2263 14.8085 12.6493 14.8445 12.6493C14.9864 12.6493 19.2821 15.5102 19.7587 15.922L20.2665 16.3608L19.1239 17.4712C18.1782 18.3902 17.9813 18.6321 17.9813 18.8752C17.9813 19.0906 18.2283 19.4958 18.9066 20.3928C20.9968 23.1572 22.1098 25.015 22.3532 26.146C22.5375 27.0029 22.3689 27.5742 21.4923 29.0617C20.7487 30.3239 20.5645 30.5504 19.9538 30.9542L19.6412 31.1609L18.9026 30.4436L18.1641 29.7262L19.231 29.2209C19.8178 28.943 20.3251 28.6472 20.3583 28.5635C20.5711 28.0287 20.2322 27.5006 19.6858 27.5156C19.2793 27.5267 17.9614 28.1359 17.0401 28.7386C15.591 29.6865 14.926 30.5044 11.158 35.9736C10.6266 36.7447 10.4666 36.9101 10.2263 36.9366C9.6266 37.0028 9.04383 36.5824 9.04383 36.0837C9.04383 35.9527 9.63797 34.848 10.3641 33.6289C11.0903 32.4098 11.6845 31.3386 11.6845 31.2484C11.6845 30.9373 11.2344 30.5509 10.8722 30.5509C10.4465 30.5509 10.4363 30.5636 9.19617 32.6364C8.63758 33.5701 8.07563 34.4006 7.94746 34.482C7.42096 34.8161 6.42372 34.184 6.5461 33.5938C6.57749 33.442 7.19803 32.3278 7.92512 31.1176C9.31622 28.8021 9.45211 28.441 9.0612 28.0997C8.8207 27.8897 8.1969 27.8888 8.0152 28.0981C7.93863 28.1864 7.41121 29.0352 6.84327 29.9842C6.27534 30.9333 5.71898 31.8092 5.60685 31.9306C5.34289 32.2166 4.90699 32.2155 4.46316 31.9279C4.19351 31.7531 4.11124 31.6267 4.08717 31.3497C4.06067 31.0466 4.25587 30.6618 5.43288 28.6978C6.21714 27.3888 6.80945 26.293 6.80945 26.1508C6.80945 25.5793 6.12899 25.233 5.67825 25.5751C5.53576 25.6833 4.9664 26.5345 4.41309 27.4668C3.14589 29.6018 3.01427 29.7471 2.37686 29.7131C2.06577 29.6965 1.5282 29.1798 1.5282 28.8975C1.5282 28.768 1.96807 27.9155 2.50554 27.003C3.04311 26.0906 3.63938 25.0006 3.83063 24.581C4.14283 23.8956 4.16487 23.7912 4.04655 23.5538C3.97413 23.4085 3.79802 23.2264 3.65523 23.1491C3.43159 23.0281 3.35389 23.0277 3.09663 23.1461C2.86659 23.2519 2.685 23.5092 2.30851 24.263C2.03947 24.8017 1.75164 25.3433 1.66907 25.4665L1.51876 25.6905L1.25591 25.491C0.905422 25.225 0.557469 25.2392 0.254102 25.532C-0.0933438 25.8672 -0.0618594 26.1997 0.359828 26.6501L0.714891 27.0294L0.399438 27.6198C-0.155297 28.6576 -0.0992344 29.516 0.572805 30.2736C0.972453 30.7241 1.51134 31.0325 2.10853 31.1522C2.45659 31.222 2.49488 31.2628 2.56048 31.6335C2.59989 31.8562 2.70247 32.1698 2.78849 32.3302C3.03823 32.7963 3.75649 33.3232 4.38627 33.5024C4.95858 33.6651 4.95929 33.6658 5.07609 34.1697C5.27464 35.0257 6.16524 35.8044 7.19031 36.0182C7.46159 36.0749 7.5208 36.1337 7.52263 36.3488C7.52831 37.0202 8.22371 37.8595 9.08801 38.2384C9.62639 38.4743 10.4942 38.4736 11.035 38.2366C11.2643 38.1361 11.6286 37.8499 11.8446 37.6006L12.2373 37.1472L13.3398 38.2019C14.2823 39.1034 14.5092 39.3847 14.9025 40.1386C15.5493 41.3789 16.3343 42.4901 17.1837 43.3676L17.9122 44.1204L15.3062 46.6418C12.478 49.3782 12.4314 49.4434 12.9494 49.9431C13.468 50.4436 13.5322 50.4007 16.4052 47.6357C17.8613 46.2343 19.0923 45.0877 19.1408 45.0877C19.1893 45.0877 19.5112 45.2596 19.8561 45.4699C20.636 45.9451 22.351 46.7753 23.8212 47.3893C25.0327 47.8953 26.2856 48.4823 26.4858 48.6378C26.583 48.7134 26.5658 48.7911 26.4096 48.9827C26.1387 49.3149 26.1555 49.652 26.4572 49.9431C26.8046 50.2784 27.1492 50.248 27.616 49.8411L28.009 49.4985L28.6208 49.8029C29.6964 50.3382 30.586 50.2841 31.3711 49.6356C31.838 49.25 32.1575 48.73 32.2816 48.1537C32.354 47.8179 32.3962 47.7809 32.7804 47.7176C33.0113 47.6796 33.3362 47.5806 33.5024 47.4976C33.9855 47.2566 34.5316 46.5635 34.7172 45.9558C34.8859 45.4036 34.8866 45.4029 35.4087 45.2902C36.2959 45.0986 37.1029 44.2393 37.3245 43.2501C37.3832 42.9884 37.4442 42.9312 37.6671 42.9295C38.3629 42.924 39.2327 42.253 39.6253 41.419C39.9779 40.6698 39.8218 39.5904 39.2792 39.027C39.1562 38.8993 37.753 37.9555 36.161 36.9298C33.5602 35.2541 32.002 34.1612 31.8296 33.892C31.7959 33.8394 32.2768 33.3043 32.8982 32.7029C33.8423 31.7894 34.0282 31.5603 34.0282 31.3107C34.0282 31.0887 33.7905 30.6987 33.1031 29.7932C31.8407 28.1301 30.7749 26.5589 30.3345 25.7118C30.1325 25.3231 29.8785 24.9592 29.77 24.9033C29.4877 24.7576 29.1322 24.7775 28.8712 24.954C28.5051 25.2014 28.5739 25.6868 29.1105 26.6444C29.4648 27.2767 29.5313 27.458 29.3898 27.4052C29.2876 27.3671 28.9069 27.2689 28.5438 27.1869C27.3902 26.9262 26.0859 27.211 24.42 28.0872C23.951 28.3339 23.5673 28.517 23.5673 28.4939C23.5673 28.4709 23.6335 28.2712 23.7143 28.05C24.1605 26.8297 23.9735 25.623 23.0692 23.8873C22.6534 23.0893 22.5182 22.7478 22.6353 22.7915C22.729 22.8263 23.1026 22.922 23.4657 23.004C24.6235 23.2656 25.8841 22.9878 27.6044 22.0916C28.0653 21.8515 28.4423 21.674 28.4423 21.697C28.4423 21.72 28.3723 21.9302 28.2867 22.1643C28.1024 22.6682 28.1707 23.0781 28.4729 23.2823C28.9659 23.6154 29.5425 23.3207 29.7536 22.6276C29.8844 22.1984 31.0722 20.1027 31.3748 19.7675C31.4656 19.6669 31.7268 19.4602 31.9551 19.3082L32.3703 19.0318L33.1079 19.7483L33.8454 20.4647L32.7786 20.97C32.1918 21.2479 31.6845 21.5437 31.6512 21.6274C31.4465 22.142 31.7717 22.6781 32.2885 22.6781C32.7754 22.6781 34.5724 21.7656 35.5256 21.0343C36.6384 20.1805 37.1214 19.5884 39.4876 16.1774C41.2611 13.6208 41.5267 13.2826 41.7832 13.2543C42.3829 13.1881 42.9657 13.6085 42.9657 14.1072C42.9657 14.2382 42.3716 15.3429 41.6454 16.562C40.9192 17.7812 40.3251 18.8523 40.3251 18.9425C40.3251 19.2536 40.7751 19.64 41.1374 19.64C41.563 19.64 41.5733 19.6273 42.8134 17.5545C43.372 16.6208 43.9339 15.7903 44.0621 15.7089C44.5886 15.3748 45.5858 16.0069 45.4634 16.5971C45.4321 16.7489 44.8115 17.8631 44.0844 19.0733C43.1077 20.6991 42.7626 21.3591 42.7626 21.6012C42.7626 22.0493 43.0393 22.2751 43.5397 22.2354C43.99 22.1997 43.9339 22.2726 45.4459 19.7544C46.4375 18.1026 46.605 17.9402 47.1751 18.0783C47.3273 18.1151 47.5678 18.2571 47.7095 18.3939C48.1249 18.7947 48.0014 19.1281 46.5304 21.5769C45.7749 22.8345 45.2001 23.8991 45.2001 24.0406C45.2001 24.6117 45.8808 24.9579 46.3313 24.6158C46.4738 24.5076 47.0431 23.6564 47.5965 22.7241C48.8637 20.5891 48.9953 20.4438 49.6327 20.4778C49.9438 20.4944 50.4813 21.0111 50.4813 21.2934C50.4813 21.4229 50.0404 22.2762 49.5013 23.1896C48.9623 24.1031 48.1142 25.7325 47.6167 26.8105C46.6343 28.9393 46.2397 29.6699 45.4911 30.7463C44.4151 32.2933 42.9138 33.5264 40.9696 34.4598C40.1045 34.8752 39.7145 35.1285 39.3192 35.5318C38.728 36.1349 38.6644 36.4381 39.051 36.811C39.4219 37.169 39.7502 37.1196 40.3041 36.6224C40.567 36.3863 41.1706 36.0068 41.6454 35.7788C42.87 35.191 44.0365 34.4224 44.941 33.6072L45.7211 32.9043L48.3342 35.4189C51.17 38.1479 51.2376 38.1928 51.7554 37.693C52.2741 37.1926 52.2296 37.1307 49.3642 34.3584C47.9118 32.9534 46.7235 31.7655 46.7235 31.7188C46.7235 31.6719 46.9014 31.362 47.1187 31.0299C47.6225 30.2603 48.2959 28.9659 49.0627 27.2934C49.7145 25.8717 50.2416 24.825 50.4028 24.6313C50.481 24.5375 50.5616 24.5541 50.7601 24.7048C51.1044 24.9662 51.4538 24.95 51.7554 24.6589C52.1029 24.3237 52.0714 23.9912 51.6497 23.5408L51.2947 23.1615L51.6101 22.5711C52.1648 21.5333 52.1088 20.6749 51.4367 19.9173C51.0371 19.4668 50.4982 19.1585 49.901 19.0387C49.553 18.9689 49.5147 18.9282 49.4491 18.5574C49.4097 18.3347 49.3071 18.0212 49.2211 17.8607C48.9713 17.3946 48.2531 16.8677 47.6233 16.6885C47.051 16.5258 47.0503 16.5251 46.9335 16.0213C46.7349 15.1652 45.8443 14.3865 44.8192 14.1727C44.548 14.116 44.4887 14.0572 44.4869 13.8421C44.4812 13.1707 43.7858 12.3314 42.9215 11.9525C42.3832 11.7166 41.5153 11.7173 40.9746 11.9543C40.7453 12.0549 40.3809 12.341 40.1649 12.5903L39.7723 13.0437L38.6697 11.989C37.7272 11.0875 37.5003 10.8062 37.1071 10.0523C35.8514 7.64462 34.1904 5.88698 31.9462 4.59081C31.1378 4.12404 29.5657 3.37511 28.1884 2.80083C26.9798 2.29691 25.7249 1.70919 25.5238 1.55308C25.4266 1.47752 25.4437 1.39981 25.5999 1.20821C25.8708 0.87599 25.8541 0.538867 25.5523 0.247804C25.205 -0.0874572 24.8604 -0.0570769 24.3936 0.349823L24.0005 0.692434L23.3774 0.382359C22.7076 0.0490581 21.9325 -0.0580569 21.3796 0.106389ZM36.24 1.94547C34.0536 4.05514 33.9742 4.17803 34.4807 4.66667C34.9871 5.1554 35.1144 5.07876 37.3008 2.969C39.4872 0.85933 39.5666 0.736437 39.0601 0.247804C38.5537 -0.240927 38.4264 -0.16429 36.24 1.94547ZM24.0257 2.41823C24.9745 2.93587 26.5638 3.70783 27.5573 4.13384C29.9255 5.14922 30.5358 5.45175 31.6923 6.18333C33.4106 7.27036 34.947 9.0085 35.8156 10.8478C36.1394 11.5333 36.3361 11.7717 37.5623 12.9644L38.9442 14.3085L37.4553 16.4434C36.6365 17.6177 35.7619 18.7989 35.5116 19.0684L35.0568 19.5584L33.9061 18.4559C32.9558 17.5453 32.7027 17.3534 32.4524 17.3535C32.2275 17.3536 31.717 17.6529 30.4735 18.5139C26.2722 21.423 24.7404 22.0298 23.1826 21.4025C22.7031 21.2094 20.7338 20.1228 20.4832 19.9131C20.3789 19.8258 20.1647 19.5741 20.0072 19.3538L19.7208 18.9531L20.4633 18.2415L21.2057 17.5298L21.7342 18.5686C22.2929 19.6671 22.4492 19.8007 23.0151 19.6637C23.3364 19.5857 23.5755 19.0946 23.4678 18.7332C23.3457 18.3229 22.6577 17.056 22.2129 16.4224C21.2496 15.0501 20.2984 14.3348 14.4774 10.6057C13.8438 10.1998 13.7632 10.1127 13.7363 9.80417C13.7157 9.56779 13.7811 9.35033 13.9427 9.11817C14.3746 8.49772 14.5729 8.55192 17.1688 10.0008C18.4257 10.7023 19.5314 11.2764 19.626 11.2767C19.9498 11.2778 20.3511 10.8444 20.3511 10.4935C20.3511 10.0791 20.3045 10.0441 18.1741 8.86209C17.2166 8.33092 16.3636 7.79505 16.2785 7.67138C15.9318 7.16726 16.5848 6.20087 17.1929 6.31818C17.3476 6.34807 18.5055 6.94686 19.766 7.64893C22.1682 8.98684 22.4774 9.09494 22.8563 8.7293C23.1118 8.48282 23.1257 7.93324 22.8817 7.72861C22.7839 7.64658 21.8829 7.12306 20.8792 6.56504C19.8755 6.00712 18.9729 5.47204 18.8734 5.376C18.6257 5.13707 18.6462 4.70851 18.924 4.30926C19.1059 4.04789 19.2357 3.96978 19.527 3.94616C19.846 3.92039 20.2332 4.10306 22.2785 5.24468C23.5878 5.97547 24.7591 6.57328 24.8815 6.57328C25.2167 6.57328 25.4949 6.39521 25.608 6.10826C25.8128 5.58827 25.6192 5.4151 23.4958 4.21851C22.3983 3.60022 21.4118 2.97782 21.3035 2.83542C21.1319 2.60973 21.1221 2.53162 21.2272 2.22448C21.3637 1.82533 21.763 1.47723 22.0844 1.47723C22.2032 1.47723 23.0768 1.90069 24.0257 2.41823ZM28.8088 28.7811C29.3025 28.9799 31.271 30.0641 31.5263 30.2778C31.6306 30.3651 31.8448 30.6168 32.0023 30.8371L32.2887 31.2378L31.5416 31.954L30.7944 32.6701L30.2731 31.6274C29.864 30.8091 29.6984 30.5717 29.5033 30.5244C28.8735 30.3719 28.3626 30.856 28.5364 31.4406C28.6706 31.8919 29.3098 33.0762 29.7828 33.7493C30.7622 35.1434 31.6939 35.8451 37.5321 39.5852C38.0998 39.9488 38.2498 40.097 38.2763 40.3206C38.3454 40.9046 37.9084 41.4622 37.3825 41.461C37.2393 41.4607 36.1157 40.8978 34.8407 40.1876C33.5839 39.4876 32.4782 38.9145 32.3835 38.9142C32.0597 38.9131 31.6585 39.3466 31.6585 39.6974C31.6585 40.1095 31.6798 40.1255 33.8217 41.3172C34.788 41.8548 35.6477 42.3959 35.7321 42.5195C36.077 43.0247 35.424 43.9899 34.8166 43.8727C34.662 43.8428 33.504 43.2441 32.2436 42.542C29.7809 41.1705 29.4231 41.0496 29.1082 41.4835C28.8973 41.774 28.9073 42.2774 29.1278 42.4623C29.2255 42.5443 30.1267 43.0679 31.1303 43.6259C32.1341 44.1838 33.0367 44.7189 33.1362 44.8149C33.3838 45.0538 33.3634 45.4824 33.0855 45.8817C32.9036 46.143 32.7738 46.2211 32.4825 46.2448C32.1635 46.2705 31.7764 46.0878 29.731 44.9462C28.4218 44.2154 27.2504 43.6176 27.1281 43.6176C26.5712 43.6176 26.2055 44.1188 26.4117 44.5993C26.4949 44.7931 26.9916 45.1178 28.3701 45.8798C30.6817 47.1576 30.8256 47.2774 30.7902 47.8948C30.773 48.195 30.2376 48.7137 29.945 48.7137C29.8108 48.7137 28.931 48.2913 27.9898 47.775C27.0486 47.2588 25.4612 46.4868 24.4622 46.0595C22.0902 45.0449 21.4776 44.7416 20.3173 44.0076C18.5989 42.9206 17.0625 41.1824 16.1939 39.3431C15.8702 38.6576 15.6734 38.4192 14.4473 37.2265L13.0653 35.8824L14.5542 33.7475C15.373 32.5732 16.2477 31.392 16.4979 31.1225L16.9527 30.6325L18.1034 31.735C19.5517 33.1227 19.4985 33.1161 20.9402 32.0827C23.5045 30.2444 25.6841 28.9835 26.8323 28.6741C27.4584 28.5053 28.2275 28.547 28.8088 28.7811Z" fill="#156ECC"/>
</svg>
