<svg width="43" height="51" viewBox="0 0 43 51" fill="none" xmlns="http://www.w3.org/2000/svg">
<path fill-rule="evenodd" clip-rule="evenodd" d="M21.6048 0.0470547C17.4117 0.400967 13.6513 2.17182 10.6994 5.18281C8.63657 7.28686 7.13159 9.89234 6.32133 12.7619C5.83168 14.4962 5.73305 15.3374 5.64155 18.5578C5.53959 22.1491 5.3976 22.8981 4.49936 24.5841C3.96674 25.584 3.47739 26.193 1.77826 27.9708C0.42592 29.3859 0.189494 29.6802 0.0779707 30.0879C-0.234041 31.2279 0.41967 32.511 1.51567 32.9102C1.76684 33.0016 2.45248 33.0436 3.7475 33.0465L5.61684 33.0509L5.66157 35.2672C5.70297 37.3168 5.72621 37.551 5.97094 38.38C6.64389 40.6603 8.12377 42.4869 10.1842 43.5803C11.1786 44.108 12.1473 44.3807 13.4843 44.5093C14.9592 44.6511 15.4204 44.8763 15.9224 45.6996C16.1159 46.0168 16.1412 46.2247 16.1896 47.8927C16.2464 49.8488 16.3004 50.0895 16.786 50.5506C17.2033 50.9469 17.4692 50.9806 20.182 50.9806C22.6819 50.9806 22.8107 50.9713 23.0565 50.7741C23.2431 50.6244 23.3138 50.4759 23.3138 50.2335C23.3138 49.9912 23.2431 49.8427 23.0565 49.693C22.8113 49.4962 22.6807 49.4865 20.2837 49.4865C18.0801 49.4865 17.761 49.4669 17.709 49.3289C17.6764 49.2422 17.6498 48.4819 17.6498 47.6393C17.6498 45.9198 17.5202 45.3687 16.9307 44.5804C16.1974 43.5998 15.3324 43.1908 13.6376 43.0233C11.9416 42.8559 10.7296 42.3764 9.61987 41.4337C8.61342 40.5786 7.79438 39.3244 7.37123 37.9899C7.21157 37.4864 7.1685 36.9783 7.11655 34.9852L7.05405 32.5866L6.7726 32.2105C6.32328 31.6101 6.09116 31.5568 3.92465 31.5568H2.00971L1.72426 31.2656C1.20658 30.7376 1.26635 30.626 3.08696 28.7189C6.36225 25.2882 7.09985 23.4585 7.10307 18.757C7.10571 15.0047 7.55571 12.8383 8.87211 10.2404C10.9615 6.11705 14.5518 3.19561 19.0169 1.98565C23.5003 0.770717 28.6562 1.82648 32.3789 4.72182L32.8013 5.05043L32.2566 5.364C31.563 5.76324 30.3602 6.90596 29.9542 7.55133C29.7729 7.8395 29.5686 8.04897 29.469 8.04897C29.3743 8.04897 29.1874 7.88093 29.0535 7.67544C27.7561 5.68355 25.9501 4.61096 23.6917 4.49113C20.623 4.32817 18.0304 5.89612 16.7677 8.6787C15.9804 10.4137 16.0065 13.0908 16.8359 15.6691C18.0247 19.3644 21.0043 22.9821 25.2181 25.8461C26.8467 26.9529 29.0717 28.1701 29.4667 28.1701C30.0463 28.1701 33.0733 26.3996 34.9837 24.9431C36.0364 24.1407 37.7713 22.5852 38.253 22.0121L38.6446 21.546L38.6453 24.0015C38.6459 26.8893 38.4901 28.0786 37.8585 30.006C37.1933 32.0357 36.283 33.6881 34.8592 35.4505C33.4193 37.2328 32.7709 38.6098 32.2843 40.9201C32.213 41.2585 32.1469 42.9907 32.1115 45.4523L32.0541 49.4367L28.9779 49.4609C26.8919 49.4772 25.8325 49.5219 25.6867 49.5996C25.2592 49.8274 25.2304 50.5299 25.6358 50.8438C25.7664 50.9451 26.5265 50.975 29.0304 50.9774C32.1859 50.9805 32.2664 50.9757 32.6903 50.7565C33.5261 50.3244 33.5112 50.41 33.5746 45.7013C33.6331 41.3586 33.6662 41.0028 34.1429 39.602C34.4849 38.5972 35.1062 37.5083 35.9207 36.4864C38.2468 33.5677 39.4731 30.8249 39.973 27.423C40.0693 26.7678 40.1393 25.2338 40.1777 22.9406L40.2361 19.4542L40.5634 18.9304C41.5603 17.3347 42.5521 14.6406 42.5521 13.5286C42.5521 13.1988 42.1643 12.8302 41.8173 12.8302C41.3961 12.8302 41.2067 13.1292 40.9537 14.1932C40.3033 16.9272 38.8674 19.3009 36.3855 21.7453C34.6598 23.4447 32.6685 24.9061 30.467 26.0884L29.4661 26.6261L28.4252 26.0783C21.8664 22.6256 17.6472 16.9888 17.6519 11.6847C17.6542 9.09736 19.178 6.93843 21.5295 6.19056C22.2553 5.95977 22.4561 5.93716 23.39 5.98108C25.388 6.07492 26.5948 6.78274 27.9326 8.64553C28.3937 9.28752 28.8078 9.54311 29.3869 9.54311C30.0369 9.54311 30.5762 9.24339 30.9608 8.66854C31.4614 7.92008 32.2941 7.06971 32.8791 6.70953C35.0814 5.35344 38.183 5.82908 39.8691 7.78142C40.3063 8.28774 40.8096 9.23552 41.1298 10.1554C41.4996 11.2171 42.6852 10.9304 42.5114 9.82122C42.4122 9.18841 41.9412 8.12826 41.4424 7.41536C40.0179 5.37924 37.5761 4.22796 35.161 4.45377L34.46 4.51932L33.8918 4.03223C32.5195 2.85584 30.0397 1.44059 28.3919 0.893435C26.291 0.195672 23.6887 -0.128756 21.6048 0.0470547Z" fill="#156ECC"/>
</svg>
