<svg width="58" height="58" viewBox="0 0 58 58" fill="none" xmlns="http://www.w3.org/2000/svg">
<path d="M53.4688 4.53125H4.53125C3.81045 4.53209 3.11941 4.8188 2.60973 5.32848C2.10005 5.83816 1.81334 6.5292 1.8125 7.25V50.75C1.81334 51.4708 2.10005 52.1618 2.60973 52.6715C3.11941 53.1812 3.81045 53.4679 4.53125 53.4688H53.4688C54.1895 53.4679 54.8806 53.1812 55.3903 52.6715C55.9 52.1618 56.1867 51.4708 56.1875 50.75V7.25C56.1867 6.5292 55.9 5.83816 55.3903 5.32848C54.8806 4.8188 54.1895 4.53209 53.4688 4.53125ZM52.5625 49.8438H5.4375V8.15625H52.5625V49.8438Z" fill="white"/>
<path d="M17.2188 27.1875H20.8438V22.6562H25.375V19.0312H20.8438V14.5H17.2188V19.0312H12.6875V22.6562H17.2188V27.1875Z" fill="white"/>
<path d="M22.2352 32.2954L19.0312 35.4995L15.8271 32.2954L13.2639 34.8586L16.468 38.0627L13.2639 41.2667L15.8271 43.8299L19.0312 40.6259L22.2352 43.8299L24.7984 41.2667L21.5944 38.0627L24.7984 34.8586L22.2352 32.2954Z" fill="white"/>
<path d="M32.625 19.0312H45.3125V22.6562H32.625V19.0312Z" fill="white"/>
<path d="M32.625 32.625H45.3125V36.25H32.625V32.625Z" fill="white"/>
<path d="M32.625 39.875H45.3125V43.5H32.625V39.875Z" fill="white"/>
</svg>
