<svg width="57" height="57" viewBox="0 0 57 57" fill="none" xmlns="http://www.w3.org/2000/svg">
<path d="M38.5189 4.67801L19.9869 23.2099C12.2323 30.984 6.35987 40.4298 2.81941 50.8237C2.65057 51.3154 2.62368 51.8446 2.74182 52.3508C2.85996 52.857 3.11836 53.3197 3.48738 53.6858L3.49706 53.6955C3.75386 53.9542 4.05928 54.1596 4.39575 54.2999C4.73223 54.4402 5.09312 54.5125 5.45766 54.5128C5.76441 54.5126 6.06905 54.4621 6.35942 54.3632C16.7534 50.8228 26.1992 44.9503 33.9732 37.1956L52.5046 18.6638C54.3592 16.8092 55.4012 14.2938 55.4012 11.671C55.4012 9.04812 54.3593 6.5327 52.5047 4.67807C51.5863 3.75975 50.4961 3.03129 49.2963 2.5343C48.0965 2.0373 46.8105 1.7815 45.5118 1.78149C42.8889 1.78148 40.3735 2.82339 38.5189 4.67801ZM31.4537 34.6766C24.4492 41.6627 16.0129 47.0464 6.72636 50.4564C10.1362 41.1698 15.5199 32.7334 22.5059 25.7289L33.5454 14.6895L42.4931 23.6372L31.4537 34.6766ZM49.9856 16.1448L45.0121 21.1182L36.0644 12.1705L41.0379 7.19703C41.6251 6.60812 42.3227 6.14075 43.0907 5.82166C43.8587 5.50256 44.682 5.33801 45.5137 5.33741C46.3453 5.33681 47.1689 5.50017 47.9374 5.81816C48.7059 6.13614 49.4041 6.6025 49.9921 7.19057C50.5802 7.77864 51.0466 8.47687 51.3645 9.24533C51.6825 10.0138 51.8459 10.8374 51.8452 11.6691C51.8446 12.5007 51.6801 13.3241 51.361 14.0921C51.0419 14.8601 50.5745 15.5576 49.9856 16.1448Z" fill="white"/>
</svg>
