<svg width="52" height="53" viewBox="0 0 52 53" fill="none" xmlns="http://www.w3.org/2000/svg">
<path d="M24.8981 17.3906C23.1304 17.3906 21.4024 17.9249 19.9327 18.9258C18.4629 19.9268 17.3174 21.3495 16.6409 23.014C15.9644 24.6785 15.7875 26.5101 16.1323 28.2771C16.4772 30.0442 17.3284 31.6673 18.5783 32.9413C19.8282 34.2153 21.4207 35.0828 23.1545 35.4343C24.8882 35.7858 26.6852 35.6054 28.3183 34.916C29.9514 34.2265 31.3473 33.0589 32.3293 31.5609C33.3114 30.0629 33.8356 28.3017 33.8356 26.5C33.8329 24.0849 32.8904 21.7695 31.2149 20.0617C29.5393 18.354 27.2676 17.3934 24.8981 17.3906ZM24.8981 32.2969C23.7732 32.2969 22.6736 31.9569 21.7383 31.3199C20.803 30.683 20.074 29.7776 19.6435 28.7184C19.213 27.6591 19.1004 26.4936 19.3199 25.3691C19.5393 24.2446 20.081 23.2117 20.8764 22.401C21.6718 21.5903 22.6852 21.0382 23.7885 20.8145C24.8918 20.5908 26.0353 20.7056 27.0746 21.1444C28.1138 21.5831 29.0021 22.3261 29.6271 23.2794C30.252 24.2327 30.5856 25.3535 30.5856 26.5C30.5839 28.0369 29.9841 29.5103 28.9179 30.5971C27.8516 31.6838 26.406 32.2951 24.8981 32.2969Z" fill="white"/>
<path d="M47.1961 33.3651L43.9695 30.6578C44.5415 27.9166 44.5415 25.0834 43.9695 22.3422L47.1961 19.635C47.5683 19.3242 47.8197 18.8885 47.9054 18.406C47.9912 17.9235 47.9055 17.4257 47.6639 17.0016L44.3518 11.1547C44.1123 10.7293 43.7321 10.4047 43.2791 10.2391C42.8262 10.0735 42.3302 10.0778 41.8801 10.2511L37.9637 11.7465C35.9235 9.86782 33.5167 8.44998 30.901 7.58605L30.2139 3.38631C30.1361 2.90231 29.8917 2.46237 29.5245 2.14534C29.1574 1.82831 28.6915 1.65492 28.2102 1.65626H21.5861C21.105 1.65494 20.639 1.82832 20.2719 2.14532C19.9047 2.46233 19.6603 2.90223 19.5825 3.38621L18.8957 7.58605C16.2801 8.44995 13.8733 9.8678 11.8331 11.7465L7.91633 10.2508C7.4662 10.0777 6.97028 10.0735 6.51741 10.2391C6.06455 10.4047 5.68434 10.7293 5.44491 11.1546L2.13286 17.0019C1.8913 17.426 1.80576 17.9239 1.89155 18.4064C1.97734 18.8889 2.22886 19.3245 2.60106 19.6352L5.8274 22.3422C5.2554 25.0834 5.2554 27.9166 5.8274 30.6578L2.60076 33.3651C2.22861 33.6758 1.97716 34.1115 1.89143 34.594C1.8057 35.0765 1.89128 35.5743 2.13286 35.9984L5.44501 41.8453C5.68447 42.2707 6.06473 42.5953 6.51767 42.7609C6.9706 42.9264 7.46658 42.9222 7.91674 42.749L11.8332 41.2535C13.8734 43.1322 16.2802 44.5501 18.8958 45.414L19.5826 49.6137C19.6604 50.0977 19.9048 50.5376 20.2719 50.8546C20.6391 51.1716 21.105 51.345 21.5861 51.3438H28.2102C28.6914 51.3451 29.1574 51.1717 29.5245 50.8547C29.8917 50.5377 30.1361 50.0978 30.2139 49.6138L30.9007 45.414C33.5164 44.55 35.9232 43.1322 37.9634 41.2535L41.8801 42.7492C42.3302 42.9223 42.8261 42.9265 43.279 42.7609C43.7318 42.5953 44.112 42.2707 44.3515 41.8454L47.6633 35.9981C47.905 35.5742 47.9907 35.0764 47.905 34.594C47.8194 34.1115 47.5681 33.6759 47.1961 33.3651ZM42.0534 39.2779L37.1674 37.4121L36.4275 38.1713C34.3918 40.2626 31.8456 41.7624 29.0515 42.5161L28.0359 42.789L27.1782 48.0313H22.619L21.7616 42.789L20.746 42.5161C17.9519 41.7624 15.4057 40.2626 13.37 38.1713L12.6302 37.4121L7.74327 39.2779L5.46411 35.2535L9.48893 31.8764L9.21471 30.844C8.46059 27.999 8.46059 25.001 9.21471 22.156L9.48893 21.1237L5.46411 17.7466L7.74378 13.7221L12.6299 15.5879L13.3697 14.8287C15.4054 12.7375 17.9516 11.2376 20.7457 10.4839L21.7613 10.211L22.6186 4.96876H27.1782L28.0356 10.211L29.0512 10.4839C31.8453 11.2376 34.3915 12.7375 36.4272 14.8287L37.167 15.5879L42.0531 13.7221L44.3329 17.7465L40.3081 21.1237L40.5823 22.156C41.3364 25.001 41.3364 27.999 40.5823 30.844L40.3081 31.8764L44.3329 35.2534L42.0534 39.2779Z" fill="white"/>
</svg>
