<svg width="40" height="40" viewBox="0 0 40 40" fill="none" xmlns="http://www.w3.org/2000/svg">
<circle cx="20" cy="20" r="20" fill="#2E76C2"/>
<path d="M21.5819 19.9276C21.5819 18.8188 20.694 17.9166 19.6028 17.9166C18.5116 17.9166 17.6238 18.8188 17.6238 19.9276C17.6238 21.0367 18.5116 21.9387 19.6028 21.9387C20.694 21.9387 21.5819 21.0367 21.5819 19.9276ZM24.5222 9.45898H14.4778C11.7104 9.45898 9.45898 11.747 9.45898 14.5593V15.9804H16.8441C17.6234 15.4163 18.5751 15.0831 19.6028 15.0831C20.6304 15.0831 21.5822 15.4163 22.3615 15.9804H29.5409V14.5593C29.5409 11.747 27.2895 9.45898 24.5222 9.45898ZM26.5547 14.3098C26.5547 14.6215 26.3039 14.8765 25.9971 14.8765H24.2741C23.9673 14.8765 23.7164 14.6215 23.7164 14.3098V12.5587C23.7164 12.247 23.9673 11.992 24.2741 11.992H25.9971C26.3038 11.992 26.5547 12.247 26.5547 12.5587V14.3098ZM24.3701 19.9276C24.3701 22.5992 22.2313 24.7722 19.6027 24.7722C16.974 24.7722 14.8355 22.5992 14.8355 19.9276C14.8355 19.1921 14.9985 18.4946 15.2884 17.8694H9.45898V24.8504C9.45898 27.6629 11.7104 29.9508 14.4778 29.9508H24.5222C27.2895 29.9508 29.541 27.6629 29.541 24.8504V17.8694H23.9172C24.207 18.4946 24.3701 19.1921 24.3701 19.9276Z" fill="white"/>
</svg>
