<svg width="40" height="40" viewBox="0 0 40 40" fill="none" xmlns="http://www.w3.org/2000/svg">
<circle cx="20" cy="20" r="20" fill="#2E76C2"/>
<path d="M28.6211 12.6201L26.021 10.0225C25.8376 9.83824 25.6196 9.69208 25.3795 9.59236C25.1394 9.49264 24.882 9.44134 24.6221 9.44141C24.0923 9.44141 23.5942 9.64893 23.2207 10.0225L20.4229 12.8203C20.2386 13.0037 20.0925 13.2217 19.9928 13.4618C19.893 13.7019 19.8417 13.9593 19.8418 14.2192C19.8418 14.749 20.0493 15.2471 20.4229 15.6206L22.4688 17.6665C21.9899 18.7221 21.324 19.6823 20.5034 20.501C19.6849 21.3236 18.7247 21.9918 17.669 22.4736L15.6231 20.4277C15.4396 20.2435 15.2216 20.0973 14.9816 19.9976C14.7415 19.8979 14.4841 19.8466 14.2241 19.8467C13.6943 19.8467 13.1963 20.0542 12.8228 20.4277L10.0225 23.2231C9.83802 23.4069 9.69172 23.6253 9.592 23.8658C9.49228 24.1063 9.4411 24.3642 9.44141 24.6245C9.44141 25.1543 9.64893 25.6523 10.0225 26.0259L12.6177 28.6211C13.2134 29.2192 14.0361 29.5586 14.8809 29.5586C15.0591 29.5586 15.23 29.5439 15.3984 29.5146C18.6895 28.9727 21.9536 27.2222 24.5879 24.5903C27.2197 21.9609 28.9678 18.6992 29.5171 15.3984C29.6831 14.3901 29.3486 13.3525 28.6211 12.6201Z" fill="white"/>
</svg>
